<svg width="36" height="38" viewBox="0 0 36 38" fill="none" xmlns="http://www.w3.org/2000/svg">
<path d="M0 14.3434H0.834125L7.42158 28.0772L14.009 14.3434H14.8325L7.83864 28.9317H7.00451L0 14.3434ZM7.95627 25.7603L7.51782 26.5708L1.65756 14.3434H2.48099L7.95627 25.7603ZM8.77971 24.0249L8.37334 24.897L3.31511 14.3434H4.14924L8.77971 24.0249ZM9.59244 22.263L9.18607 23.1528L4.97267 14.3434H5.7961L9.59244 22.263ZM18.971 14.3434H19.8051L12.8006 28.9317H11.9772L18.971 14.3434ZM17.3241 14.3434H18.1476L11.1431 28.9317H10.3196L17.3241 14.3434ZM15.6559 14.3434H16.49L9.4855 28.9317H8.66207L15.6559 14.3434Z" fill="#B10C0C"/>
<path d="M28.8864 0L25.1591 7.57453L24.6419 8.6255L10.187 38H8.24073L26.6963 0H28.8864Z" fill="#B10C0C"/>
<path d="M29.6906 13.1031H28.3966C27.8477 13.1031 27.452 12.9886 27.2096 12.7595C26.9672 12.5246 26.846 12.2163 26.846 11.8345C26.846 10.9888 27.6124 10.566 29.1452 10.566C30.5853 10.566 31.669 10.7422 32.3961 11.0945L31.7759 11.4822C31.2769 11.2942 30.4 11.2003 29.1452 11.2003C28.5321 11.2003 28.1186 11.256 27.9047 11.3676C27.698 11.4792 27.5946 11.6349 27.5946 11.8345C27.5946 12.0342 27.6516 12.1898 27.7657 12.3014C27.8798 12.413 28.0901 12.4688 28.3966 12.4688H29.7227C30.6851 12.4688 31.5513 12.6039 32.3213 12.874C33.0984 13.1442 33.7365 13.5142 34.2355 13.984C34.7346 14.448 35.116 14.9853 35.3798 15.5961C35.6435 16.201 35.7754 16.85 35.7754 17.543C35.7754 18.1068 35.6792 18.6412 35.4867 19.1463C35.2942 19.6514 35.0019 20.1153 34.6098 20.5382C34.2248 20.961 33.7578 21.3281 33.2089 21.6393C32.6671 21.9447 32.0183 22.1826 31.2626 22.3529C30.514 22.5291 29.7013 22.6172 28.8244 22.6172C27.4484 22.6172 26.158 22.4439 24.9532 22.0974C23.7555 21.7568 22.7574 21.2782 21.9589 20.6615L22.5791 20.2827C23.3063 20.823 24.2153 21.2429 25.3061 21.5424C26.404 21.8361 27.5768 21.9829 28.8244 21.9829C29.8011 21.9829 30.6816 21.8684 31.4658 21.6393C32.2571 21.4044 32.9059 21.0843 33.4121 20.6791C33.9254 20.2739 34.3175 19.8041 34.5884 19.2696C34.8664 18.7352 35.0055 18.1596 35.0055 17.543C35.0055 16.7267 34.8058 15.9896 34.4066 15.3318C34.0074 14.6682 33.3978 14.1308 32.5779 13.7197C31.7652 13.3086 30.8028 13.1031 29.6906 13.1031ZM28.3966 13.7373H29.6157C31.063 13.7373 32.193 14.1015 33.0057 14.8297C33.8256 15.5579 34.2355 16.4624 34.2355 17.543C34.2355 18.6412 33.7614 19.5515 32.8132 20.2739C31.865 20.9904 30.5354 21.3486 28.8244 21.3486C27.6837 21.3486 26.6179 21.2194 25.6269 20.961C24.6359 20.7026 23.8125 20.3385 23.1566 19.8687L23.7555 19.4722C24.3401 19.8657 25.0744 20.1711 25.9584 20.3884C26.8496 20.6057 27.8049 20.7144 28.8244 20.7144C30.3287 20.7144 31.4765 20.4178 32.2678 19.8246C33.0663 19.2314 33.4655 18.4709 33.4655 17.543C33.4655 16.6268 33.1305 15.8692 32.4603 15.2702C31.7973 14.6711 30.8455 14.3716 29.605 14.3716H28.3966C27.3557 14.3716 26.5751 14.1367 26.0547 13.6669C25.5342 13.197 25.274 12.5863 25.274 11.8345C25.274 11.0828 25.5948 10.472 26.2365 10.0022C26.8852 9.53235 27.8548 9.29744 29.1452 9.29744C30.0506 9.29744 30.8919 9.38553 31.669 9.56172C32.4461 9.73203 33.0877 9.97869 33.5939 10.3017L32.9843 10.6893C32.0932 10.1842 30.8135 9.93171 29.1452 9.93171C28.0687 9.93171 27.2809 10.1079 26.7818 10.4603C26.2899 10.8068 26.044 11.2649 26.044 11.8345C26.044 12.4101 26.2258 12.8711 26.5894 13.2176C26.9601 13.5641 27.5625 13.7373 28.3966 13.7373ZM28.3966 15.0059H29.573C30.6138 15.0059 31.3945 15.2437 31.9149 15.7195C32.4354 16.1952 32.6956 16.803 32.6956 17.543C32.6956 18.2947 32.3712 18.9055 31.7224 19.3753C31.0808 19.8452 30.1148 20.0801 28.8244 20.0801C27.919 20.0801 27.0741 19.9949 26.2899 19.8246C25.5128 19.6484 24.8712 19.3988 24.365 19.0758L24.9746 18.6882C25.8657 19.1933 27.149 19.4458 28.8244 19.4458C29.9009 19.4458 30.6851 19.2726 31.177 18.9261C31.6761 18.5737 31.9256 18.1127 31.9256 17.543C31.9256 16.9733 31.7403 16.5152 31.3695 16.1687C30.9988 15.8164 30.3964 15.6402 29.5623 15.6402H28.3966C26.9351 15.6402 25.7909 15.2819 24.9639 14.5654C24.144 13.8431 23.7341 12.9328 23.7341 11.8345C23.7341 10.7363 24.2082 9.82893 25.1564 9.11244C26.1046 8.39007 27.4342 8.02889 29.1452 8.02889C30.2859 8.02889 31.3481 8.15809 32.332 8.4165C33.323 8.67491 34.1464 9.03903 34.8023 9.50886L34.2034 9.90528C33.6188 9.5118 32.8845 9.20641 32.0005 8.98911C31.1164 8.77181 30.1647 8.66316 29.1452 8.66316C27.6409 8.66316 26.4895 8.95975 25.6911 9.55291C24.8997 10.1461 24.504 10.9066 24.504 11.8345C24.504 12.7566 24.8391 13.5171 25.5093 14.1161C26.1794 14.7093 27.1419 15.0059 28.3966 15.0059Z" fill="#B10C0C"/>
<path d="M22.9962 11.9698L22.3822 13.2176C22.6005 13.8078 22.3296 13.197 22.6005 13.8078C22.8714 14.4186 23.26 14.956 23.7662 15.4199C24.2795 15.8839 24.9318 16.248 25.7231 16.5123C26.5216 16.7766 27.4128 16.9087 28.3966 16.9087H29.5516C29.8653 16.9087 30.0791 16.9674 30.1932 17.0849C30.3144 17.1965 30.375 17.3492 30.375 17.543C30.375 17.7427 30.2681 17.8983 30.0542 18.0099C29.8474 18.1215 29.4375 18.1773 28.8244 18.1773C27.5625 18.1773 26.682 18.0833 26.183 17.8954L25.5627 18.283C26.2899 18.6353 27.3771 18.8115 28.8244 18.8115C30.3572 18.8115 31.1236 18.3887 31.1236 17.543C31.1236 17.1671 31.0024 16.8617 30.76 16.6268C30.5176 16.3919 30.1219 16.2744 29.573 16.2744H28.3966C27.2559 16.2744 26.2685 16.0748 25.4344 15.6754C24.6003 15.2702 23.98 14.7357 23.5737 14.0721C23.1673 13.4085 22.9962 12.7979 22.9962 11.9698Z" fill="#B10C0C"/>
<path d="M25.1591 7.57453L24.6419 8.6255C25.1395 8.25495 25.7565 7.96212 26.4931 7.74699C27.2845 7.51208 28.1685 7.39462 29.1452 7.39462C30.3928 7.39462 31.562 7.54438 32.6528 7.84389C33.7436 8.13754 34.6526 8.55451 35.3798 9.09482L36 8.71602C35.2015 8.09937 34.2034 7.62072 33.0057 7.2801C31.808 6.9336 30.5212 6.76034 29.1452 6.76034C28.2683 6.76034 27.452 6.84844 26.6963 7.02463C25.9491 7.19463 25.6533 7.22396 25.1591 7.57453Z" fill="#B10C0C"/>
</svg>
